# xmcd
#
# Track frame offsets: 
#        150
#        12290
#        23717
#        35165
#        44835
#        57322
#        69100
#        78860
#        89325
#        97212
#        108750
#        118960
#        133130
#        144300
#        156920
#        167212
#        178540
#        188630
#        197700
#        206710
#        216690
#        229212
#        242602
#        258235
#        271037
#        290805
#        303582
#        317792
#        328897
#        343140
#
# Disc length: 4733 seconds
#
# Revision: 2
# Processed by: cddbd v1.5.2PL0 Copyright (c) Steve Scherf et al.
# Submitted via: ExactAudioCopy v1.1
#
DISCID=ce127b1e
DTITLE=Floyd Tillman - I Love You So Much It Hurts_CD6
DYEAR=2004
DGENRE=Country
TTITLE0=Lonesome Without The Blues
TTITLE1=Life Is Just A School
TTITLE2=Each Night At Nine
TTITLE3=It Just Tears Me Up
TTITLE4=The Song Of Music
TTITLE5=The Record Goes Round And Round
TTITLE6=Stickin' My Neck Out
TTITLE7=Whatever You Do
TTITLE8=Daisy Mae
TTITLE9=Two Stubborn People
TTITLE10=This Cold War With You
TTITLE11=Let's Make Memories Tonight
TTITLE12=I'm Still In Love With Every Girl
TTITLE13=Each Night At Nine
TTITLE14=I Love You So Much It Hurts
TTITLE15=When Your Woman Turns Bad
TTITLE16=Mr. Bottle
TTITLE17=I Don't Care Anymore
TTITLE18=Empty Glass
TTITLE19=Drivin' Nails In My Coffin
TTITLE20=I Love You So Much It Hurts (with Mickey Gilley)
TTITLE21=One Way Love (with Ernest Tubb)
TTITLE22=Memories Are All That's Real
TTITLE23=I Gotta Have My Baby Back (with Merle Haggard And Willie Nels
TTITLE23=on)
TTITLE24=I Am Music
TTITLE25=Slipping Around (with Willie Nelson)
TTITLE26=Half A House (with Merle Haggard)
TTITLE27=My Mistake (with Johnny Lee)
TTITLE28=My Mistake (with Johnny Lee)
TTITLE29=The Last Sad Song
EXTD=YEAR: 2004
EXTT0=
EXTT1=
EXTT2=
EXTT3=
EXTT4=
EXTT5=
EXTT6=
EXTT7=
EXTT8=
EXTT9=
EXTT10=
EXTT11=
EXTT12=
EXTT13=
EXTT14=
EXTT15=
EXTT16=
EXTT17=
EXTT18=
EXTT19=
EXTT20=
EXTT21=
EXTT22=
EXTT23=
EXTT24=
EXTT25=
EXTT26=
EXTT27=
EXTT28=
EXTT29=
PLAYORDER=
